<svg width="320" height="72" viewBox="0 0 320 72" fill="none" xmlns="http://www.w3.org/2000/svg">
<path d="M101.755 51.6145C100.131 51.6145 98.5879 51.4137 97.1261 51.012C95.7049 50.5703 94.3853 49.9679 93.1672 49.2048C91.949 48.4016 90.8933 47.4578 90 46.3735L93.5326 42.8795C94.5883 44.1647 95.8064 45.1285 97.187 45.7711C98.5675 46.3735 100.111 46.6747 101.816 46.6747C103.521 46.6747 104.841 46.3936 105.775 45.8313C106.709 45.2289 107.176 44.4056 107.176 43.3614C107.176 42.3173 106.79 41.5141 106.018 40.9518C105.288 40.3494 104.333 39.8675 103.156 39.506C101.978 39.1044 100.72 38.7229 99.3796 38.3614C98.0803 37.9598 96.8419 37.4578 95.6643 36.8554C94.4868 36.253 93.5123 35.4297 92.7408 34.3855C92.0099 33.3414 91.6445 31.9558 91.6445 30.2289C91.6445 28.502 92.0708 27.0161 92.9235 25.7711C93.7762 24.4859 94.9537 23.502 96.4561 22.8193C97.9991 22.1365 99.8466 21.7952 101.999 21.7952C104.272 21.7952 106.282 22.1968 108.028 23C109.815 23.7631 111.277 24.9277 112.414 26.494L108.881 29.988C108.069 28.9438 107.054 28.1406 105.836 27.5783C104.658 27.0161 103.318 26.7349 101.816 26.7349C100.232 26.7349 99.0142 27.0161 98.1615 27.5783C97.3494 28.1004 96.9434 28.8434 96.9434 29.8072C96.9434 30.7711 97.3088 31.5141 98.0397 32.0361C98.7706 32.5582 99.7248 33 100.902 33.3614C102.12 33.7229 103.379 34.1044 104.679 34.506C105.978 34.8675 107.216 35.3695 108.394 36.012C109.571 36.6546 110.526 37.5181 111.256 38.6024C112.028 39.6867 112.414 41.1124 112.414 42.8795C112.414 45.5703 111.439 47.6988 109.49 49.2651C107.582 50.8313 105.003 51.6145 101.755 51.6145Z" fill="#F8FAFC"/>
<path d="M130.854 51.6145C128.214 51.6145 125.819 50.9719 123.667 49.6867C121.515 48.3614 119.809 46.5743 118.551 44.3253C117.332 42.0763 116.723 39.5462 116.723 36.7349C116.723 33.9237 117.332 31.3936 118.551 29.1446C119.809 26.8956 121.494 25.1084 123.606 23.7831C125.758 22.4578 128.174 21.7952 130.854 21.7952C133.046 21.7952 134.995 22.257 136.701 23.1807C138.447 24.0643 139.848 25.3092 140.903 26.9157C141.959 28.4819 142.548 30.3092 142.67 32.3976V41.012C142.548 43.0602 141.959 44.8876 140.903 46.494C139.888 48.1004 138.508 49.3655 136.762 50.2892C135.056 51.1727 133.087 51.6145 130.854 51.6145ZM131.767 46.494C134.488 46.494 136.68 45.5904 138.345 43.7831C140.01 41.9357 140.842 39.5863 140.842 36.7349C140.842 34.7671 140.457 33.0602 139.685 31.6145C138.954 30.1285 137.899 28.9839 136.518 28.1807C135.137 27.3374 133.534 26.9157 131.706 26.9157C129.879 26.9157 128.255 27.3374 126.834 28.1807C125.453 29.0241 124.357 30.1888 123.545 31.6747C122.773 33.1205 122.388 34.7871 122.388 36.6747C122.388 38.6024 122.773 40.3092 123.545 41.7952C124.357 43.241 125.474 44.3855 126.895 45.2289C128.316 46.0723 129.94 46.494 131.767 46.494ZM140.477 51.012V43.3012L141.512 36.3133L140.477 29.3855V22.3976H146.019V51.012H140.477Z" fill="#F8FAFC"/>
<path d="M163.928 51.012L150.65 22.3976H156.741L167.4 46.5542H163.867L174.587 22.3976H180.434L167.156 51.012H163.928Z" fill="#F8FAFC"/>
<path d="M197.377 51.6145C194.494 51.6145 191.896 50.9719 189.581 49.6867C187.267 48.3614 185.439 46.5743 184.099 44.3253C182.76 42.0763 182.09 39.5261 182.09 36.6747C182.09 33.8635 182.739 31.3333 184.039 29.0843C185.379 26.8353 187.165 25.0683 189.398 23.7831C191.672 22.4578 194.21 21.7952 197.012 21.7952C199.692 21.7952 202.047 22.3976 204.077 23.6024C206.148 24.8072 207.752 26.4739 208.889 28.6024C210.066 30.7309 210.655 33.1406 210.655 35.8313C210.655 36.2329 210.635 36.6747 210.594 37.1566C210.553 37.5984 210.472 38.1205 210.35 38.7229H185.927V34.2048H207.427L205.417 35.9518C205.417 34.0241 205.072 32.3976 204.381 31.0723C203.691 29.7068 202.717 28.6627 201.458 27.9398C200.199 27.1767 198.677 26.7952 196.89 26.7952C195.022 26.7952 193.378 27.1968 191.956 28C190.535 28.8032 189.439 29.9277 188.668 31.3735C187.896 32.8193 187.51 34.5261 187.51 36.494C187.51 38.502 187.916 40.2691 188.728 41.7952C189.541 43.2811 190.698 44.4458 192.2 45.2892C193.702 46.0924 195.428 46.494 197.377 46.494C199.001 46.494 200.483 46.2128 201.823 45.6506C203.204 45.0884 204.381 44.245 205.356 43.1205L208.889 46.6747C207.508 48.2811 205.803 49.506 203.772 50.3494C201.783 51.1928 199.651 51.6145 197.377 51.6145Z" fill="#F8FAFC"/>
<path d="M231.858 51.6145C229.666 51.6145 227.676 51.1727 225.89 50.2892C224.144 49.3655 222.743 48.1004 221.687 46.494C220.631 44.8876 220.043 43.0602 219.921 41.012V32.3976C220.043 30.3092 220.631 28.4819 221.687 26.9157C222.783 25.3092 224.205 24.0643 225.951 23.1807C227.737 22.257 229.706 21.7952 231.858 21.7952C234.498 21.7952 236.873 22.4578 238.985 23.7831C241.137 25.1084 242.822 26.8956 244.04 29.1446C245.258 31.3936 245.867 33.9237 245.867 36.7349C245.867 39.5462 245.258 42.0763 244.04 44.3253C242.822 46.5743 241.137 48.3614 238.985 49.6867C236.873 50.9719 234.498 51.6145 231.858 51.6145ZM230.945 46.494C232.772 46.494 234.376 46.0723 235.757 45.2289C237.137 44.3855 238.233 43.241 239.045 41.7952C239.858 40.3092 240.264 38.6024 240.264 36.6747C240.264 34.7871 239.858 33.1004 239.045 31.6145C238.233 30.1285 237.137 28.9839 235.757 28.1807C234.376 27.3374 232.792 26.9157 231.006 26.9157C229.179 26.9157 227.575 27.3374 226.194 28.1807C224.814 28.9839 223.738 30.1285 222.966 31.6145C222.195 33.1004 221.809 34.8072 221.809 36.7349C221.809 38.6225 222.174 40.3092 222.905 41.7952C223.677 43.241 224.753 44.3855 226.133 45.2289C227.554 46.0723 229.158 46.494 230.945 46.494ZM216.632 63V22.3976H222.113V29.9277L221.078 36.8554L222.113 43.8434V63H216.632Z" fill="#F8FAFC"/>
<path d="M264.385 51.6145C261.745 51.6145 259.35 50.9719 257.198 49.6867C255.046 48.3614 253.34 46.5743 252.081 44.3253C250.863 42.0763 250.254 39.5462 250.254 36.7349C250.254 33.9237 250.863 31.3936 252.081 29.1446C253.34 26.8956 255.025 25.1084 257.137 23.7831C259.289 22.4578 261.705 21.7952 264.385 21.7952C266.577 21.7952 268.526 22.257 270.232 23.1807C271.978 24.0643 273.378 25.3092 274.434 26.9157C275.49 28.4819 276.079 30.3092 276.201 32.3976V41.012C276.079 43.0602 275.49 44.8876 274.434 46.494C273.419 48.1004 272.039 49.3655 270.293 50.2892C268.587 51.1727 266.618 51.6145 264.385 51.6145ZM265.298 46.494C268.019 46.494 270.211 45.5904 271.876 43.7831C273.541 41.9357 274.373 39.5863 274.373 36.7349C274.373 34.7671 273.988 33.0602 273.216 31.6145C272.485 30.1285 271.429 28.9839 270.049 28.1807C268.668 27.3374 267.064 26.9157 265.237 26.9157C263.41 26.9157 261.786 27.3374 260.365 28.1807C258.984 29.0241 257.888 30.1888 257.076 31.6747C256.304 33.1205 255.919 34.7871 255.919 36.6747C255.919 38.6024 256.304 40.3092 257.076 41.7952C257.888 43.241 259.005 44.3855 260.426 45.2289C261.847 46.0723 263.471 46.494 265.298 46.494ZM274.008 51.012V43.3012L275.043 36.3133L274.008 29.3855V22.3976H279.55V51.012H274.008Z" fill="#F8FAFC"/>
<path d="M299.773 51.6145C297.093 51.6145 294.698 50.9719 292.586 49.6867C290.475 48.3614 288.79 46.5743 287.531 44.3253C286.313 42.0763 285.704 39.5462 285.704 36.7349C285.704 33.9237 286.313 31.3936 287.531 29.1446C288.79 26.8956 290.475 25.1084 292.586 23.7831C294.698 22.4578 297.093 21.7952 299.773 21.7952C301.925 21.7952 303.874 22.257 305.62 23.1807C307.366 24.0643 308.767 25.3092 309.823 26.9157C310.919 28.4819 311.528 30.3092 311.65 32.3976V41.012C311.528 43.0602 310.94 44.8876 309.884 46.494C308.828 48.1004 307.427 49.3655 305.681 50.2892C303.935 51.1727 301.966 51.6145 299.773 51.6145ZM300.687 46.494C302.514 46.494 304.098 46.0723 305.438 45.2289C306.818 44.3855 307.894 43.241 308.666 41.7952C309.437 40.3092 309.823 38.6225 309.823 36.7349C309.823 34.7671 309.417 33.0602 308.605 31.6145C307.833 30.1687 306.757 29.0241 305.377 28.1807C304.037 27.3374 302.453 26.9157 300.626 26.9157C298.799 26.9157 297.195 27.3374 295.814 28.1807C294.434 29.0241 293.337 30.1888 292.525 31.6747C291.754 33.1205 291.368 34.7871 291.368 36.6747C291.368 38.6024 291.754 40.3092 292.525 41.7952C293.337 43.241 294.434 44.3855 295.814 45.2289C297.236 46.0723 298.86 46.494 300.687 46.494ZM315 51.012H309.457V43.3012L310.493 36.3133L309.457 29.3855V8H315V51.012Z" fill="#F8FAFC"/>
<path fill-rule="evenodd" clip-rule="evenodd" d="M20.3691 14.7677L40.2435 49.045L64.7891 15.8367C67.7864 11.7816 64.8914 6.04186 59.8488 6.04186H15.3097L15.3097 6.04186H20.3691V14.7677Z" fill="url(#paint0_linear_1497_5742)"/>
<path fill-rule="evenodd" clip-rule="evenodd" d="M51.7255 57.2271L31.8514 22.9503L7.30576 56.1586C4.30845 60.2137 7.20344 65.9534 12.2461 65.9534H51.7255V57.2271Z" fill="url(#paint1_linear_1497_5742)"/>
<path d="M10.3251 10.3251C16.0274 4.6227 25.2728 4.6227 30.9752 10.3251L61.6749 41.0247C67.3773 46.7271 67.3773 55.9725 61.6749 61.6749V61.6749C55.9725 67.3773 46.7271 67.3773 41.0247 61.6749L10.3251 30.9753C4.62267 25.2729 4.62267 16.0275 10.3251 10.3251V10.3251Z" fill="url(#paint2_linear_1497_5742)"/>
<defs>
<linearGradient id="paint0_linear_1497_5742" x1="61.0851" y1="9.97113" x2="47.1095" y2="27.5435" gradientUnits="userSpaceOnUse">
<stop stop-color="#7949F7"/>
<stop offset="0.485" stop-color="#693AD2"/>
<stop offset="1" stop-color="#43187C"/>
</linearGradient>
<linearGradient id="paint1_linear_1497_5742" x1="11.0181" y1="61.1998" x2="23.421" y2="48.1495" gradientUnits="userSpaceOnUse">
<stop stop-color="#7949F7"/>
<stop offset="0.485" stop-color="#693AD2"/>
<stop offset="1" stop-color="#43187C"/>
</linearGradient>
<linearGradient id="paint2_linear_1497_5742" x1="98.5301" y1="74.0068" x2="11.4445" y2="11.8797" gradientUnits="userSpaceOnUse">
<stop offset="0.419341" stop-color="#49138D"/>
<stop offset="1" stop-color="#7A4AFB"/>
</linearGradient>
</defs>
</svg>
