<svg width="325" height="72" viewBox="0 0 325 72" fill="none" xmlns="http://www.w3.org/2000/svg">
<path fill-rule="evenodd" clip-rule="evenodd" d="M20.3689 14.7677L40.2433 49.045L64.7889 15.8367C67.7863 11.7816 64.8913 6.04187 59.8487 6.04187H15.3096L15.3096 6.04187H20.3689V14.7677Z" fill="url(#paint0_linear_1557_1280)"/>
<path fill-rule="evenodd" clip-rule="evenodd" d="M51.7255 57.2271L31.8514 22.9503L7.30576 56.1586C4.30845 60.2137 7.20344 65.9534 12.2461 65.9534H51.7255V57.2271Z" fill="url(#paint1_linear_1557_1280)"/>
<path d="M10.3251 10.3251C16.0274 4.6227 25.2728 4.6227 30.9752 10.3251L61.6749 41.0247C67.3773 46.7271 67.3773 55.9725 61.6749 61.6749C55.9725 67.3773 46.7271 67.3773 41.0247 61.6749L10.3251 30.9753C4.62267 25.2729 4.62267 16.0275 10.3251 10.3251Z" fill="url(#paint2_linear_1557_1280)"/>
<path d="M86.8236 53.5794C85.0518 53.5794 83.3686 53.3604 81.7739 52.9222C80.2236 52.4403 78.7839 51.7831 77.4551 50.9507C76.1262 50.0745 74.9745 49.0449 74 47.862L77.8537 44.0504C79.0054 45.4524 80.3343 46.5038 81.8404 47.2048C83.3464 47.862 85.0297 48.1906 86.8901 48.1906C88.7505 48.1906 90.1901 47.8839 91.2089 47.2705C92.2277 46.6134 92.7371 45.7152 92.7371 44.5761C92.7371 43.437 92.3163 42.5608 91.4747 41.9474C90.6774 41.2903 89.6364 40.7645 88.3518 40.3702C87.0673 39.9321 85.6941 39.5159 84.2323 39.1216C82.8149 38.6835 81.4638 38.1358 80.1793 37.4786C78.8947 36.8215 77.8316 35.9233 76.99 34.7842C76.1926 33.6451 75.794 32.1336 75.794 30.2497C75.794 28.3658 76.2591 26.7448 77.1893 25.3866C78.1195 23.9847 79.4041 22.9113 81.043 22.1665C82.7263 21.4217 84.7417 21.0493 87.0894 21.0493C89.57 21.0493 91.7626 21.4874 93.6673 22.3636C95.6164 23.1961 97.211 24.4666 98.4513 26.1752L94.5976 29.9869C93.7116 28.8478 92.6042 27.9715 91.2754 27.3582C89.9908 26.7448 88.529 26.4381 86.8901 26.4381C85.1625 26.4381 83.8337 26.7448 82.9035 27.3582C82.0175 27.9277 81.5746 28.7382 81.5746 29.7897C81.5746 30.8412 81.9732 31.6517 82.7706 32.2212C83.5679 32.7908 84.6088 33.2727 85.8934 33.667C87.2223 34.0613 88.5955 34.4775 90.0129 34.9157C91.4304 35.31 92.7814 35.8576 94.066 36.5586C95.3506 37.2596 96.3915 38.2015 97.1889 39.3844C98.0305 40.5674 98.4513 42.1227 98.4513 44.0504C98.4513 46.9858 97.3882 49.3078 95.262 51.0164C93.1801 52.7251 90.3673 53.5794 86.8236 53.5794Z" fill="#181818"/>
<path d="M118.568 53.5794C115.688 53.5794 113.075 52.8784 110.727 51.4765C108.38 50.0307 106.519 48.0811 105.146 45.6276C103.817 43.1742 103.153 40.414 103.153 37.3472C103.153 34.2804 103.817 31.5203 105.146 29.0668C106.519 26.6134 108.357 24.6637 110.661 23.218C113.009 21.7722 115.644 21.0493 118.568 21.0493C120.96 21.0493 123.086 21.5531 124.946 22.5608C126.851 23.5246 128.379 24.8828 129.531 26.6353C130.683 28.3439 131.325 30.3373 131.458 32.6156V42.0131C131.325 44.2475 130.683 46.241 129.531 47.9934C128.423 49.7459 126.917 51.126 125.013 52.1336C123.152 53.0975 121.004 53.5794 118.568 53.5794ZM119.564 47.9934C122.532 47.9934 124.924 47.0077 126.74 45.0361C128.556 43.0208 129.464 40.4578 129.464 37.3472C129.464 35.2004 129.044 33.3384 128.202 31.7612C127.405 30.1402 126.253 28.8916 124.747 28.0153C123.241 27.0953 121.491 26.6353 119.498 26.6353C117.505 26.6353 115.733 27.0953 114.182 28.0153C112.676 28.9354 111.48 30.2059 110.594 31.8269C109.753 33.4042 109.332 35.2223 109.332 37.2815C109.332 39.3844 109.753 41.2464 110.594 42.8675C111.48 44.4447 112.698 45.6933 114.249 46.6134C115.799 47.5334 117.571 47.9934 119.564 47.9934ZM129.066 52.9222V44.5104L130.195 36.8872L129.066 29.3297V21.7065H135.112V52.9222H129.066Z" fill="#181818"/>
<path d="M154.649 52.9222L140.164 21.7065H146.808L158.436 48.0591H154.582L166.276 21.7065H172.655L158.17 52.9222H154.649Z" fill="#181818"/>
<path d="M191.139 53.5794C187.994 53.5794 185.159 52.8784 182.634 51.4765C180.109 50.0307 178.116 48.0811 176.654 45.6276C175.192 43.1742 174.461 40.3921 174.461 37.2815C174.461 34.2147 175.17 31.4545 176.588 29.0011C178.049 26.5476 179.998 24.6199 182.435 23.218C184.915 21.7722 187.684 21.0493 190.74 21.0493C193.664 21.0493 196.233 21.7065 198.448 23.0208C200.707 24.3352 202.456 26.1533 203.697 28.4754C204.981 30.7974 205.623 33.4261 205.623 36.3614C205.623 36.7996 205.601 37.2815 205.557 37.8072C205.513 38.2892 205.424 38.8587 205.291 39.5159H178.647V34.5871H202.102L199.909 36.4929C199.909 34.3899 199.533 32.6156 198.78 31.1698C198.027 29.6802 196.964 28.5411 195.59 27.7525C194.217 26.92 192.556 26.5038 190.607 26.5038C188.57 26.5038 186.776 26.9419 185.225 27.8182C183.675 28.6944 182.479 29.9211 181.637 31.4984C180.796 33.0756 180.375 34.9376 180.375 37.0843C180.375 39.2749 180.818 41.2026 181.704 42.8675C182.59 44.4885 183.852 45.759 185.491 46.6791C187.13 47.5553 189.013 47.9934 191.139 47.9934C192.911 47.9934 194.527 47.6867 195.989 47.0734C197.495 46.46 198.78 45.54 199.843 44.3133L203.697 48.1906C202.191 49.943 200.33 51.2793 198.115 52.1993C195.945 53.1194 193.619 53.5794 191.139 53.5794Z" fill="#181818"/>
<path d="M228.755 53.5794C226.363 53.5794 224.192 53.0975 222.243 52.1336C220.338 51.126 218.81 49.7459 217.659 47.9934C216.507 46.241 215.865 44.2475 215.732 42.0131V32.6156C215.865 30.3373 216.507 28.3439 217.659 26.6353C218.855 24.8828 220.405 23.5246 222.31 22.5608C224.259 21.5531 226.407 21.0493 228.755 21.0493C231.634 21.0493 234.225 21.7722 236.529 23.218C238.876 24.6637 240.715 26.6134 242.043 29.0668C243.372 31.5203 244.037 34.2804 244.037 37.3472C244.037 40.414 243.372 43.1742 242.043 45.6276C240.715 48.0811 238.876 50.0307 236.529 51.4765C234.225 52.8784 231.634 53.5794 228.755 53.5794ZM227.758 47.9934C229.751 47.9934 231.501 47.5334 233.007 46.6134C234.513 45.6933 235.709 44.4447 236.595 42.8675C237.481 41.2464 237.924 39.3844 237.924 37.2815C237.924 35.2223 237.481 33.3823 236.595 31.7612C235.709 30.1402 234.513 28.8916 233.007 28.0153C231.501 27.0953 229.773 26.6353 227.824 26.6353C225.831 26.6353 224.081 27.0953 222.575 28.0153C221.069 28.8916 219.896 30.1402 219.054 31.7612C218.212 33.3823 217.791 35.2442 217.791 37.3472C217.791 39.4064 218.19 41.2464 218.987 42.8675C219.829 44.4447 221.003 45.6933 222.509 46.6134C224.059 47.5334 225.809 47.9934 227.758 47.9934ZM212.144 66V21.7065H218.124V29.9211L216.994 37.4786L218.124 45.1019V66H212.144Z" fill="#181818"/>
<path d="M264.238 53.5794C261.359 53.5794 258.745 52.8784 256.397 51.4765C254.05 50.0307 252.189 48.0811 250.816 45.6276C249.487 43.1742 248.823 40.414 248.823 37.3472C248.823 34.2804 249.487 31.5203 250.816 29.0668C252.189 26.6134 254.028 24.6637 256.331 23.218C258.679 21.7722 261.314 21.0493 264.238 21.0493C266.63 21.0493 268.756 21.5531 270.616 22.5608C272.521 23.5246 274.049 24.8828 275.201 26.6353C276.353 28.3439 276.995 30.3373 277.128 32.6156V42.0131C276.995 44.2475 276.353 46.241 275.201 47.9934C274.094 49.7459 272.587 51.126 270.683 52.1336C268.822 53.0975 266.674 53.5794 264.238 53.5794ZM265.234 47.9934C268.202 47.9934 270.594 47.0077 272.41 45.0361C274.226 43.0208 275.135 40.4578 275.135 37.3472C275.135 35.2004 274.714 33.3384 273.872 31.7612C273.075 30.1402 271.923 28.8916 270.417 28.0153C268.911 27.0953 267.161 26.6353 265.168 26.6353C263.175 26.6353 261.403 27.0953 259.852 28.0153C258.346 28.9354 257.15 30.2059 256.264 31.8269C255.423 33.4042 255.002 35.2223 255.002 37.2815C255.002 39.3844 255.423 41.2464 256.264 42.8675C257.15 44.4447 258.369 45.6933 259.919 46.6134C261.469 47.5334 263.241 47.9934 265.234 47.9934ZM274.736 52.9222V44.5104L275.865 36.8872L274.736 29.3297V21.7065H280.782V52.9222H274.736Z" fill="#181818"/>
<path d="M302.844 53.5794C299.92 53.5794 297.307 52.8784 295.003 51.4765C292.7 50.0307 290.862 48.0811 289.488 45.6276C288.16 43.1742 287.495 40.414 287.495 37.3472C287.495 34.2804 288.16 31.5203 289.488 29.0668C290.862 26.6134 292.7 24.6637 295.003 23.218C297.307 21.7722 299.92 21.0493 302.844 21.0493C305.191 21.0493 307.317 21.5531 309.222 22.5608C311.127 23.5246 312.655 24.8828 313.807 26.6353C315.003 28.3439 315.667 30.3373 315.8 32.6156V42.0131C315.667 44.2475 315.025 46.241 313.873 47.9934C312.722 49.7459 311.193 51.126 309.289 52.1336C307.384 53.0975 305.236 53.5794 302.844 53.5794ZM303.84 47.9934C305.834 47.9934 307.561 47.5334 309.023 46.6134C310.529 45.6933 311.703 44.4447 312.544 42.8675C313.386 41.2464 313.807 39.4064 313.807 37.3472C313.807 35.2004 313.364 33.3384 312.478 31.7612C311.636 30.184 310.462 28.9354 308.956 28.0153C307.495 27.0953 305.767 26.6353 303.774 26.6353C301.781 26.6353 300.031 27.0953 298.525 28.0153C297.019 28.9354 295.823 30.2059 294.937 31.8269C294.095 33.4042 293.674 35.2223 293.674 37.2815C293.674 39.3844 294.095 41.2464 294.937 42.8675C295.823 44.4447 297.019 45.6933 298.525 46.6134C300.075 47.5334 301.847 47.9934 303.84 47.9934ZM319.455 52.9222H313.408V44.5104L314.538 36.8872L313.408 29.3297V6H319.455V52.9222Z" fill="#181818"/>
<defs>
<linearGradient id="paint0_linear_1557_1280" x1="61.085" y1="9.97113" x2="47.1095" y2="27.5435" gradientUnits="userSpaceOnUse">
<stop stop-color="#7949F7"/>
<stop offset="0.485" stop-color="#693AD2"/>
<stop offset="1" stop-color="#43187C"/>
</linearGradient>
<linearGradient id="paint1_linear_1557_1280" x1="11.0181" y1="61.1998" x2="23.421" y2="48.1495" gradientUnits="userSpaceOnUse">
<stop stop-color="#7949F7"/>
<stop offset="0.485" stop-color="#693AD2"/>
<stop offset="1" stop-color="#43187C"/>
</linearGradient>
<linearGradient id="paint2_linear_1557_1280" x1="98.5301" y1="74.0068" x2="11.4445" y2="11.8797" gradientUnits="userSpaceOnUse">
<stop offset="0.419341" stop-color="#49138D"/>
<stop offset="1" stop-color="#7A4AFB"/>
</linearGradient>
</defs>
</svg>
