<svg width="30" height="25" viewBox="0 0 30 25" fill="none" xmlns="http://www.w3.org/2000/svg">
<path d="M14.9993 16.3589C17.1453 16.3589 18.8853 14.6189 18.8853 12.4729C18.8853 10.3269 17.1453 8.58691 14.9993 8.58691C12.8533 8.58691 11.1133 10.3269 11.1133 12.4729C11.1133 14.6189 12.8533 16.3589 14.9993 16.3589Z" fill="white"/>
<path d="M24.9807 11.04V8.301C24.9807 5.102 22.3797 2.5 19.1817 2.5H16.2617V5.379H19.1817C20.7927 5.379 22.1027 6.69 22.1027 8.301V16.658C22.1027 18.269 20.7927 19.58 19.1817 19.58H16.2617V22.459H19.1817C22.3797 22.459 24.9817 19.857 24.9817 16.658V13.919H27.5017V11.04H24.9807Z" fill="white"/>
<path d="M5.02 8.301V11.04H2.5V13.919H5.02V16.658C5.02 19.857 7.622 22.459 10.82 22.459H13.742V19.58H10.82C9.21 19.58 7.899 18.269 7.899 16.658V8.301C7.899 6.69 9.21 5.379 10.82 5.379H13.742V2.5H10.82C7.622 2.5 5.02 5.102 5.02 8.301Z" fill="white"/>
</svg>
